<?xml version="1.0" encoding="UTF-8"?>
<svg xmlns="http://www.w3.org/2000/svg" xmlns:xlink="http://www.w3.org/1999/xlink" width="292pt" height="123.4pt" viewBox="0 0 292 123.4" version="1.1">
<defs>
<clipPath id="clip1">
  <path d="M 0 0 L 292 0 L 292 123.398438 L 0 123.398438 Z M 0 0 "/>
</clipPath>
</defs>
<g id="surface1">
<path style=" stroke:none;fill-rule:evenodd;fill:rgb(59.959412%,0%,0%);fill-opacity:1;" d="M 42.945313 0.652344 L 291.214844 0.789063 L 289.59375 8.101563 L 264.550781 111.582031 C 263.074219 117.679688 256.070313 122.679688 248.929688 122.679688 L 0.949219 122.613281 L 3.617188 111.582031 L 27.324219 11.746094 C 28.773438 5.648438 35.800781 0.648438 42.945313 0.652344 Z M 42.945313 0.652344 "/>
<g clip-path="url(#clip1)" clip-rule="nonzero">
<path style="fill:none;stroke-width:14.127;stroke-linecap:butt;stroke-linejoin:miter;stroke:rgb(100%,100%,100%);stroke-opacity:1;stroke-miterlimit:4;" d="M 429.453125 1227.476563 L 2912.148438 1226.109375 L 2895.9375 1152.984375 L 2645.507813 118.179688 C 2630.742188 57.203125 2560.703125 7.203125 2489.296875 7.203125 L 9.492188 7.867188 L 36.171875 118.179688 L 273.242188 1116.539063 C 287.734375 1177.515625 358.007813 1227.515625 429.453125 1227.476563 Z M 429.453125 1227.476563 " transform="matrix(0.1,0,0,-0.1,0,123.4)"/>
</g>
<path style=" stroke:none;fill-rule:evenodd;fill:rgb(100%,100%,100%);fill-opacity:1;" d="M 57.109375 78.914063 L 51.871094 78.914063 L 56.269531 59.632813 L 36.605469 59.632813 L 32.207031 78.914063 L 26.96875 78.914063 L 35.953125 39.515625 L 41.191406 39.515625 L 37.667969 54.96875 L 57.332031 54.96875 L 60.855469 39.515625 L 66.097656 39.515625 Z M 77.660156 44.402344 L 72.050781 44.402344 L 73.226563 39.246094 L 78.835938 39.246094 Z M 69.472656 78.914063 L 64.496094 78.914063 L 71.234375 49.359375 L 76.214844 49.359375 Z M 105.917969 63.777344 C 105.371094 66.179688 104.527344 68.367188 103.390625 70.351563 C 102.25 72.339844 100.890625 74.019531 99.332031 75.394531 C 97.867188 76.695313 96.265625 77.707031 94.523438 78.414063 C 92.777344 79.132813 91.023438 79.492188 89.261719 79.492188 C 87.726563 79.492188 86.375 79.324219 85.207031 78.988281 C 84.042969 78.652344 82.898438 78.140625 81.765625 77.433594 L 78.941406 89.820313 L 73.964844 89.820313 L 83.191406 49.359375 L 88.167969 49.359375 L 87.464844 52.449219 C 89.035156 51.339844 90.738281 50.410156 92.5625 49.660156 C 94.378906 48.910156 96.222656 48.539063 98.09375 48.539063 C 101.660156 48.539063 104.128906 49.886719 105.492188 52.578125 C 106.867188 55.257813 107.007813 58.996094 105.917969 63.777344 Z M 100.757813 63.914063 C 101.570313 60.34375 101.574219 57.679688 100.757813 55.914063 C 99.9375 54.15625 98.269531 53.273438 95.75 53.273438 C 94.3125 53.273438 92.808594 53.578125 91.21875 54.203125 C 89.636719 54.816406 88.066406 55.628906 86.511719 56.632813 L 82.691406 73.378906 C 83.953125 74.019531 85.074219 74.453125 86.035156 74.679688 C 86.996094 74.90625 88.125 75.023438 89.40625 75.023438 C 92.179688 75.023438 94.554688 74.082031 96.535156 72.214844 C 98.511719 70.34375 99.921875 67.578125 100.757813 63.914063 Z M 135.351563 64.652344 L 113.582031 64.652344 C 113.167969 66.46875 113.078125 68.058594 113.320313 69.40625 C 113.554688 70.746094 114.050781 71.863281 114.8125 72.730469 C 115.53125 73.570313 116.480469 74.210938 117.636719 74.632813 C 118.804688 75.058594 120.148438 75.265625 121.667969 75.265625 C 123.671875 75.265625 125.785156 74.871094 128.011719 74.066406 C 130.226563 73.261719 131.863281 72.464844 132.90625 71.691406 L 133.167969 71.691406 L 131.929688 77.117188 C 130.089844 77.824219 128.25 78.410156 126.394531 78.890625 C 124.535156 79.367188 122.648438 79.601563 120.722656 79.601563 C 115.820313 79.601563 112.300781 78.273438 110.152344 75.617188 C 108.003906 72.964844 107.488281 69.195313 108.601563 64.308594 C 109.707031 59.476563 111.898438 55.640625 115.183594 52.796875 C 118.46875 49.957031 122.261719 48.539063 126.5625 48.539063 C 130.554688 48.539063 133.359375 49.703125 134.988281 52.035156 C 136.617188 54.355469 136.945313 57.667969 135.96875 61.953125 Z M 131.378906 60.839844 C 131.957031 58.230469 131.757813 56.207031 130.792969 54.78125 C 129.816406 53.355469 128.011719 52.640625 125.363281 52.640625 C 122.710938 52.640625 120.40625 53.421875 118.46875 54.996094 C 116.53125 56.558594 115.191406 58.511719 114.453125 60.839844 Z M 160.730469 54.789063 L 160.46875 54.789063 C 159.769531 54.609375 159.074219 54.484375 158.398438 54.402344 C 157.722656 54.320313 156.90625 54.285156 155.949219 54.285156 C 154.414063 54.285156 152.855469 54.628906 151.273438 55.304688 C 149.691406 55.980469 148.109375 56.859375 146.546875 57.933594 L 141.761719 78.914063 L 136.785156 78.914063 L 143.523438 49.359375 L 148.5 49.359375 L 147.507813 53.722656 C 149.84375 52.144531 151.847656 51.015625 153.503906 50.355469 C 155.164063 49.695313 156.773438 49.359375 158.347656 49.359375 C 159.207031 49.359375 159.832031 49.378906 160.210938 49.421875 C 160.589844 49.46875 161.148438 49.546875 161.898438 49.671875 Z M 179.339844 77.0625 C 177.496094 77.859375 175.785156 78.472656 174.195313 78.914063 C 172.601563 79.359375 170.972656 79.574219 169.292969 79.574219 C 167.160156 79.574219 165.273438 79.257813 163.636719 78.636719 C 162 78.011719 160.6875 77.0625 159.703125 75.789063 C 158.710938 74.515625 158.074219 72.914063 157.8125 70.976563 C 157.550781 69.035156 157.714844 66.765625 158.308594 64.171875 C 159.410156 59.34375 161.601563 55.542969 164.886719 52.789063 C 168.171875 50.039063 171.988281 48.664063 176.34375 48.664063 C 178.039063 48.664063 179.648438 48.902344 181.164063 49.378906 C 182.691406 49.859375 184.058594 50.4375 185.253906 51.132813 L 183.996094 56.660156 L 183.730469 56.660156 C 182.484375 55.476563 181.117188 54.574219 179.65625 53.933594 C 178.183594 53.296875 176.683594 52.984375 175.148438 52.984375 C 172.324219 52.984375 169.882813 53.933594 167.816406 55.828125 C 165.75 57.726563 164.300781 60.507813 163.464844 64.171875 C 162.652344 67.734375 162.824219 70.46875 163.984375 72.386719 C 165.148438 74.296875 167.167969 75.257813 170.070313 75.257813 C 171.070313 75.257813 172.125 75.121094 173.230469 74.859375 C 174.328125 74.597656 175.339844 74.253906 176.265625 73.832031 C 177.074219 73.460938 177.839844 73.0625 178.574219 72.65625 C 179.300781 72.242188 179.890625 71.878906 180.328125 71.582031 L 180.589844 71.582031 Z M 205.40625 78.914063 L 200.457031 78.914063 L 201.175781 75.773438 C 200.664063 76.070313 199.972656 76.484375 199.101563 77.027344 C 198.226563 77.5625 197.40625 77.996094 196.628906 78.3125 C 195.707031 78.71875 194.671875 79.046875 193.535156 79.332031 C 192.398438 79.601563 191.109375 79.738281 189.65625 79.738281 C 187 79.738281 184.945313 78.851563 183.496094 77.089844 C 182.046875 75.328125 181.628906 73.082031 182.25 70.34375 C 182.761719 68.105469 183.65625 66.289063 184.9375 64.90625 C 186.210938 63.523438 187.832031 62.429688 189.792969 61.636719 C 191.773438 60.839844 194.0625 60.308594 196.648438 60.019531 C 199.230469 59.738281 201.988281 59.53125 204.910156 59.386719 L 205.085938 58.621094 C 205.34375 57.492188 205.359375 56.546875 205.132813 55.808594 C 204.902344 55.070313 204.46875 54.484375 203.824219 54.058594 C 203.210938 53.652344 202.425781 53.378906 201.472656 53.234375 C 200.519531 53.101563 199.496094 53.027344 198.421875 53.027344 C 197.121094 53.027344 195.628906 53.199219 193.941406 53.539063 C 192.257813 53.886719 190.488281 54.390625 188.625 55.039063 L 188.359375 55.039063 L 189.515625 49.984375 C 190.542969 49.722656 192.015625 49.433594 193.921875 49.117188 C 195.828125 48.796875 197.671875 48.636719 199.449219 48.636719 C 201.539063 48.636719 203.304688 48.808594 204.769531 49.152344 C 206.238281 49.496094 207.441406 50.082031 208.378906 50.914063 C 209.304688 51.726563 209.914063 52.773438 210.199219 54.066406 C 210.492188 55.351563 210.417969 56.949219 209.984375 58.855469 Z M 202.117188 71.636719 L 203.996094 63.40625 C 202.457031 63.496094 200.640625 63.621094 198.546875 63.804688 C 196.449219 63.976563 194.765625 64.238281 193.484375 64.570313 C 191.964844 64.980469 190.664063 65.609375 189.585938 66.460938 C 188.515625 67.316406 187.800781 68.496094 187.460938 69.996094 C 187.074219 71.691406 187.300781 72.964844 188.125 73.820313 C 188.949219 74.679688 190.414063 75.105469 192.511719 75.105469 C 194.261719 75.105469 195.941406 74.761719 197.539063 74.082031 C 199.140625 73.40625 200.664063 72.59375 202.117188 71.636719 Z M 236.082031 54.789063 L 235.820313 54.789063 C 235.121094 54.609375 234.425781 54.484375 233.75 54.402344 C 233.070313 54.320313 232.257813 54.285156 231.300781 54.285156 C 229.765625 54.285156 228.207031 54.628906 226.625 55.304688 C 225.042969 55.980469 223.460938 56.859375 221.898438 57.933594 L 217.109375 78.914063 L 212.132813 78.914063 L 218.875 49.359375 L 223.851563 49.359375 L 222.855469 53.722656 C 225.195313 52.144531 227.195313 51.015625 228.855469 50.355469 C 230.511719 49.695313 232.125 49.359375 233.695313 49.359375 C 234.554688 49.359375 235.183594 49.378906 235.5625 49.421875 C 235.941406 49.46875 236.5 49.546875 237.246094 49.671875 Z M 256.382813 78.914063 L 251.40625 78.914063 L 252.109375 75.816406 C 250.402344 77.054688 248.691406 78.023438 246.980469 78.707031 C 245.269531 79.394531 243.511719 79.738281 241.6875 79.738281 C 238.164063 79.738281 235.675781 78.382813 234.214844 75.664063 C 232.769531 72.945313 232.589844 69.179688 233.6875 64.363281 C 234.257813 61.863281 235.128906 59.621094 236.289063 57.667969 C 237.449219 55.710938 238.796875 54.039063 240.320313 52.664063 C 241.824219 51.332031 243.460938 50.296875 245.21875 49.597656 C 246.980469 48.890625 248.714844 48.539063 250.421875 48.539063 C 251.972656 48.539063 253.308594 48.703125 254.4375 49.027344 C 255.5625 49.351563 256.714844 49.859375 257.875 50.554688 L 260.796875 37.734375 L 265.773438 37.734375 Z M 253.0625 71.644531 L 256.933594 54.679688 C 255.734375 54.074219 254.625 53.660156 253.621094 53.433594 C 252.605469 53.210938 251.476563 53.089844 250.230469 53.089844 C 247.441406 53.089844 245.050781 54.058594 243.054688 55.996094 C 241.058594 57.941406 239.652344 60.695313 238.84375 64.257813 C 238.039063 67.769531 238.027344 70.445313 238.8125 72.269531 C 239.597656 74.09375 241.3125 75.003906 243.960938 75.003906 C 245.367188 75.003906 246.878906 74.6875 248.464844 74.066406 C 250.050781 73.441406 251.582031 72.628906 253.0625 71.644531 Z M 253.0625 71.644531 "/>
</g>
</svg>
