<svg xmlns="http://www.w3.org/2000/svg" xmlns:xlink="http://www.w3.org/1999/xlink" preserveAspectRatio="xMidYMid meet" version="1.0" viewBox="-2.9 -1.6 500.8 504.3" zoomAndPan="magnify" style="fill: rgb(0, 0, 0);" original_string_length="4151"><g><g id="__id401_s2wty48kv8"><path d="M342.1,168.4c-17.1-15.6-39.7-13.6-58.4-1.9c-10.9,6.8-20.4,16.2-28.1,26.5c-4.4,5.9-7.6,11.8-10.1,18.1 c-7.7-16.5-27.7-29.8-43.1-35.4c-22.4-8.1-46.9-3-61.1,16.8c-14.7,20.5-15.5,48.1-4.8,70.4c10.7,22.4,31,39.4,50.1,54.4 c11.2,8.8,22.6,17.6,34,26.2c6.3,4.7,12.3,9.8,18.4,14.6c1.6,5,6.8,9.1,12.5,9.1c2.9,1.3,6.5-0.3,8-3c0,0,0,0,0,0 c20.3-17.1,41-33.9,59.5-53.1c18.9-19.7,37.6-42.9,44.3-69.9C369.4,216.2,361.5,186,342.1,168.4z M340,239.8 c-7.1,21.8-23.5,40.2-39.5,56.1c-16.3,16.3-34.3,30.9-51.9,45.8c-8.9-10.2-20.7-18.6-31.2-26.6c-17.4-13.3-35.5-26.4-50.1-42.8 c-12.3-13.8-21.3-31.4-17.4-50.3c3.9-19.3,16.8-33.1,37.4-31.7c10.7,0.7,21.3,5,30.3,10.5c9.4,5.8,15.8,14.1,23.9,21.2 c-0.4,1.3-0.8,2.7-1.2,4.1c-0.7,2.4,2.6,3.6,3.9,1.6c1-1.5,2.2-3,3.3-4.5c0.3-0.2,0.6-0.5,0.7-0.9c4.7-5.8,10.4-11.4,15.4-16.5 c6.7-6.8,13.3-13.6,21.1-19.2c12.2-8.6,29.2-17.2,42.4-5.8C343.6,195.4,346.5,220.2,340,239.8z" style="fill: rgb(25, 26, 26);"/></g><g id="__id402_s2wty48kv8"><path d="M216.3,42.6c1,0.8,3.2,0.8,4.2,0c5.2-4,4.5-9.2,4.3-15.4c-0.2-7.4-0.5-15-1.4-22.3c-0.8-6.5-9.3-6.5-10.1,0 c-0.9,7.3-1.2,14.9-1.4,22.3C211.8,33.4,211.1,38.6,216.3,42.6z" style="fill: rgb(25, 26, 26);"/></g><g id="__id403_s2wty48kv8"><path d="M143.1,55.9c-3-4.4-6.1-8.6-9.1-12.9c-2.8-4-5.4-8.9-9.1-12.2c-2.7-2.4-8.4-1-7.9,3.3 c1.1,10.9,10.9,20.6,18.1,28C139,66.2,146.4,60.8,143.1,55.9z" style="fill: rgb(25, 26, 26);"/></g><g id="__id404_s2wty48kv8"><path d="M41.1,110.2c-3.9-0.5-5.8,5.1-3.1,7.5c6,5.6,13,10.3,21.2,11.8c5.2,1,9.2-4.9,5.3-9 C58.2,114,49.9,111.2,41.1,110.2z" style="fill: rgb(25, 26, 26);"/></g><g id="__id405_s2wty48kv8"><path d="M31.6,198.9c-8.2-3.9-18.3-4.9-27.1-2.5c-7.4,2-4.9,11.4,1.7,12.3c7.3,1,14.6,2.1,22,3 C34.8,212.6,37.5,201.7,31.6,198.9z" style="fill: rgb(25, 26, 26);"/></g><g id="__id406_s2wty48kv8"><path d="M42.7,303.4c-5.9-0.1-12,2.4-17,5.3c-5.5,3.3-9.5,7.1-13.3,12.2c-3.7,5.1,2.4,11.2,7.7,10 c9.6-2.3,20.7-9,27.1-16.7C50.6,310.1,48.6,303.6,42.7,303.4z" style="fill: rgb(25, 26, 26);"/></g><g id="__id407_s2wty48kv8"><path d="M87.4,391.5c-4.1,0.9-7.6,2.7-10.6,5.6c-2.9,2.8-5.3,6.9-6.2,10.8c-1.4,6.3,6.1,11,11,6.4 c4.1-4,7.8-8.5,12-12.4C98.3,397.5,93.2,390.3,87.4,391.5z" style="fill: rgb(25, 26, 26);"/></g><g id="__id408_s2wty48kv8"><path d="M153.2,450.7c-8.3,5.3-10,18.4-9.7,27.4c0.2,4.7,6.7,5.6,8.1,1.1c1.4-4.3,2.9-8.6,4.3-13 c1.3-4,3-8.2,2.5-12.5C158.1,451.3,155.6,449.2,153.2,450.7z" style="fill: rgb(25, 26, 26);"/></g><g id="__id409_s2wty48kv8"><path d="M237.2,472c-1.2-3.4-6-4.4-7.9-1c-4.7,8.1-2.3,18.9,2,26.6c2.9,5.1,9.5,1.3,8.8-3.7 C239.1,486.8,239.5,478.8,237.2,472z" style="fill: rgb(25, 26, 26);"/></g><g id="__id410_s2wty48kv8"><path d="M393.9,420.3c-4.7-2.1-9.7,3.3-5.7,7.4c7.1,7.3,16.7,12.7,25.8,17.1c3.5,1.7,7.1-1.7,5.3-5.3 C414.5,429.9,403.5,424.5,393.9,420.3z" style="fill: rgb(25, 26, 26);"/></g><g id="__id411_s2wty48kv8"><path d="M451.2,362.4c-7-1.6-15-3.5-22.1-1.8c-4.7,1.1-5.2,7.7-1.3,10c5.7,3.5,13,4.5,19.3,6.5 c6.6,2,13.1,3.5,20,3.7c4.3,0.1,7.1-5.9,3.7-8.8C465.1,367.1,458.6,364,451.2,362.4z" style="fill: rgb(25, 26, 26);"/></g><g id="__id412_s2wty48kv8"><path d="M484.7,295.1c-8.1-4.8-19.3-8.4-28.5-4.5c-3.2,1.4-5.3,6.8-1.1,8.6c7.8,3.5,16.9,4.4,25.3,6.3 C486.5,306.9,490.4,298.5,484.7,295.1z" style="fill: rgb(25, 26, 26);"/></g><g id="__id413_s2wty48kv8"><path d="M491.6,203c-10.7-1.1-22.9,2.5-30.6,10.4c-4.4,4.6,1.1,10.5,6.4,8.3c8.7-3.7,18-6.1,26.4-10.5 C497.9,208.8,495.5,203.4,491.6,203z" style="fill: rgb(25, 26, 26);"/></g><g id="__id414_s2wty48kv8"><path d="M437.4,142.2c7.8-5.6,16.3-10.5,23.5-16.9c3-2.7,0.7-8.4-3.4-8.2c-11.8,0.7-20,10.1-25.2,20 C430.7,140.2,434.1,144.6,437.4,142.2z" style="fill: rgb(25, 26, 26);"/></g><g id="__id415_s2wty48kv8"><path d="M390.2,57.9c4.4-4.1,9-7.8,11.7-13.3c3.3-6.7-4.4-12.1-9.9-7.7c-9.6,7.6-21.4,18.2-22.1,31.3 c-0.3,5,6,5.6,8.5,2.3C382,65.9,385.9,61.9,390.2,57.9z" style="fill: rgb(25, 26, 26);"/></g><g id="__id416_s2wty48kv8"><path d="M301.1,37.9c3-11.3,7.9-21,7.2-33c-0.3-5.4-7.1-5.9-9-1.2c-4.6,11-8.3,20.8-7.8,32.9 C291.8,41.9,299.7,43.3,301.1,37.9z" style="fill: rgb(25, 26, 26);"/></g><g id="__id417_s2wty48kv8"><path d="M325.8,465.9c-0.1-3.7-2.7-6.8-6.4-7.3c-3.3-0.4-7.6,1.6-8.1,5.3c-0.6,4.1-1.2,8.3-0.8,12.5 c0.5,4.6,2.1,8.5,4,12.6c1.5,3.3,6.1,4.3,9.1,3c3.6-1.6,4.9-4.9,4.2-8.6C326.9,477.7,326,471.7,325.8,465.9z" style="fill: rgb(25, 26, 26);"/></g></g><script xmlns=""/></svg>